<svg width="365" height="365" viewBox="0 0 365 365" fill="none" xmlns="http://www.w3.org/2000/svg">
<g clip-path="url(#clip0_710_20)">
<path fill-rule="evenodd" clip-rule="evenodd" d="M285.916 365H79.0825C68.6913 365.021 58.3983 362.99 48.7941 359.023C39.1899 355.056 30.4636 349.231 23.1158 341.884C15.7681 334.536 9.9437 325.809 5.97675 316.205C2.00979 306.601 -0.0215836 296.308 -0.000818968 285.917V79.0835C-0.0215836 68.6923 2.00979 58.3993 5.97675 48.7951C9.9437 39.1909 15.7681 30.4645 23.1158 23.1168C30.4636 15.7691 39.1899 9.94468 48.7941 5.97773C58.3983 2.01077 68.6913 -0.020607 79.0825 0.000157595H285.916C296.307 -0.020607 306.6 2.01077 316.204 5.97773C325.808 9.94468 334.535 15.7691 341.883 23.1168C349.23 30.4645 355.055 39.1909 359.022 48.7951C362.989 58.3993 365.02 68.6923 364.999 79.0835V285.917C365.02 296.308 362.989 306.601 359.022 316.205C355.055 325.809 349.23 334.536 341.883 341.884C334.535 349.231 325.808 355.056 316.204 359.023C306.6 362.99 296.307 365.021 285.916 365Z" fill="#D8D6CC"/>
<path fill-rule="evenodd" clip-rule="evenodd" d="M364.992 282.494V285.9C365.021 296.636 362.855 307.265 358.629 317.134C354.403 327.004 348.205 335.906 340.416 343.294C336.689 346.858 332.613 350.037 328.249 352.784V282.494H364.992Z" fill="#4CD964"/>
<path d="M365 191.239H328.238V282.489H365V191.239Z" fill="#FF9500"/>
<path d="M365 99.9888H328.238V191.239H365V99.9888Z" fill="#5AC8FA"/>
<path d="M365 99.9888H328.238V130.405H365V99.9888Z" fill="url(#paint0_linear_710_20)"/>
<path d="M365.003 191.242H328.241V221.658H365.003V191.242Z" fill="url(#paint1_linear_710_20)"/>
<path fill-rule="evenodd" clip-rule="evenodd" d="M328.238 282.494V306.827H362.133C364.015 300.015 364.978 292.983 364.999 285.917V282.494H328.238Z" fill="url(#paint2_linear_710_20)"/>
<path fill-rule="evenodd" clip-rule="evenodd" d="M364.999 79.0834C365.02 65.7501 361.659 52.6293 355.23 40.9483C348.801 29.2674 339.514 19.408 328.238 12.2925V99.9895H364.999L364.999 79.0834Z" fill="#C4C2BA"/>
<path d="M170.894 304.159C193.47 304.182 215.545 297.509 234.328 284.983C253.11 272.457 267.755 254.642 276.411 233.791C285.066 212.94 287.342 189.991 282.952 167.846C278.562 145.701 267.702 125.356 251.747 109.384C235.791 93.4125 215.457 82.5321 193.317 78.1193C171.176 73.7065 148.224 75.9598 127.365 84.5939C106.505 93.228 88.6751 107.855 76.1303 126.625C63.5854 145.394 56.8895 167.463 56.8895 190.039C56.9996 220.252 69.0425 249.197 90.3953 270.572C111.748 291.946 140.681 304.018 170.894 304.159ZM170.894 228.195C132.039 228.195 103.073 246.226 93.8829 261.699C79.9299 246.691 70.6628 227.935 67.2192 207.734C63.7756 187.534 66.3053 166.767 74.4978 147.984C82.6902 129.201 96.189 113.218 113.337 101.999C130.485 90.7792 150.535 84.8108 171.027 84.8263C191.52 84.8418 211.561 90.8404 228.692 102.086C245.823 113.331 259.298 129.334 267.462 148.129C275.626 166.925 278.124 187.695 274.65 207.891C271.176 228.086 261.88 246.828 247.905 261.815C238.715 246.226 209.865 228.195 170.894 228.195ZM170.894 208.07C193.229 208.07 210.33 189.108 210.33 164.329C210.33 141.063 192.88 121.52 170.894 121.52C149.024 121.52 131.458 141.063 131.574 164.329C131.574 189.108 148.675 207.954 170.894 208.07Z" fill="#A9A29A"/>
<path fill-rule="evenodd" clip-rule="evenodd" d="M328.249 352.701C335.113 348.369 341.268 343.007 346.499 336.801V28.199C341.268 21.9936 335.113 16.6308 328.249 12.2993V352.701Z" fill="url(#paint3_linear_710_20)"/>
</g>
<defs>
<linearGradient id="paint0_linear_710_20" x1="346.619" y1="99.788" x2="346.619" y2="128.495" gradientUnits="userSpaceOnUse">
<stop stop-opacity="0.3"/>
<stop offset="1" stop-color="white" stop-opacity="0"/>
</linearGradient>
<linearGradient id="paint1_linear_710_20" x1="346.622" y1="190.527" x2="346.622" y2="221.528" gradientUnits="userSpaceOnUse">
<stop stop-opacity="0.2"/>
<stop offset="1" stop-color="white" stop-opacity="0"/>
</linearGradient>
<linearGradient id="paint2_linear_710_20" x1="346.619" y1="282.495" x2="346.619" y2="305.566" gradientUnits="userSpaceOnUse">
<stop stop-opacity="0.2"/>
<stop offset="1" stop-color="white" stop-opacity="0"/>
</linearGradient>
<linearGradient id="paint3_linear_710_20" x1="328.251" y1="182.5" x2="346.501" y2="182.5" gradientUnits="userSpaceOnUse">
<stop stop-opacity="0.2"/>
<stop offset="1" stop-color="white" stop-opacity="0"/>
</linearGradient>
<clipPath id="clip0_710_20">
<rect width="365" height="365" fill="white"/>
</clipPath>
</defs>
</svg>
