<svg width="366" height="366" viewBox="0 0 366 366" fill="none" xmlns="http://www.w3.org/2000/svg">
<g clip-path="url(#clip0_515_754)">
<path d="M0 130.133C0 84.5824 0 61.8069 8.8648 44.4088C16.6625 29.1049 29.1049 16.6625 44.4088 8.8648C61.8069 0 84.5824 0 130.133 0H235.867C281.418 0 304.193 0 321.591 8.8648C336.895 16.6625 349.337 29.1049 357.135 44.4088C366 61.8069 366 84.5824 366 130.133V235.867C366 281.418 366 304.193 357.135 321.591C349.337 336.895 336.895 349.337 321.591 357.135C304.193 366 281.418 366 235.867 366H130.133C84.5824 366 61.8069 366 44.4088 357.135C29.1049 349.337 16.6625 336.895 8.8648 321.591C0 304.193 0 281.418 0 235.867V130.133Z" fill="url(#paint0_linear_515_754)"/>
<ellipse cx="182.998" cy="183.001" rx="160.125" ry="160.126" fill="#2E2E2F"/>
<path fill-rule="evenodd" clip-rule="evenodd" d="M182.156 87.9228C182.33 86.9717 183.694 86.9717 183.868 87.9228L186.375 101.589C187.301 101.626 188.223 101.679 189.14 101.747L193.219 88.4663C193.503 87.5419 194.857 87.7004 194.92 88.6653L195.82 102.518C196.736 102.662 197.647 102.822 198.553 102.996L204.144 90.2883C204.534 89.4032 205.86 89.7181 205.81 90.6838L205.094 104.538C205.987 104.788 206.875 105.053 207.755 105.332L214.783 93.3644C215.273 92.5305 216.554 92.9975 216.392 93.9509L214.069 107.627C214.927 107.979 215.777 108.346 216.62 108.726L224.992 97.6528C225.576 96.8814 226.794 97.4941 226.522 98.4223L222.623 111.742C223.432 112.191 224.233 112.653 225.025 113.129L234.634 103.095C235.303 102.397 236.441 103.147 236.064 104.037L230.639 116.822C231.389 117.361 232.129 117.912 232.86 118.476L243.577 109.619C244.322 109.002 245.366 109.88 244.888 110.72L238.01 122.794C238.692 123.415 239.363 124.047 240.024 124.691L251.701 117.134C252.513 116.609 253.448 117.601 252.875 118.381L244.641 129.574C245.246 130.27 245.84 130.975 246.422 131.691L258.895 125.54C259.763 125.112 260.576 126.207 259.917 126.914L250.442 137.073C250.963 137.834 251.472 138.604 251.968 139.383L265.063 134.723C265.975 134.399 266.656 135.58 265.919 136.206L255.334 145.192C255.764 146.009 256.18 146.834 256.582 147.668L270.122 144.558C271.065 144.342 271.605 145.595 270.799 146.131L259.247 153.825C259.578 154.687 259.895 155.556 260.198 156.432L274.003 154.913C274.965 154.808 275.355 156.115 274.493 156.554L262.122 162.858C262.35 163.752 262.563 164.651 262.761 165.556L276.653 165.648C277.621 165.654 277.857 166.998 276.95 167.334L263.92 172.166C264.042 173.078 264.148 173.994 264.239 174.915L278.037 176.617C278.998 176.736 279.077 178.098 278.137 178.327L264.624 181.618C264.632 182.078 264.636 182.54 264.636 183.002C264.636 183.463 264.632 183.922 264.624 184.381L278.137 187.672C279.077 187.901 278.998 189.264 278.037 189.382L264.239 191.084C264.148 192.005 264.042 192.922 263.921 193.833L276.95 198.665C277.857 199.001 277.621 200.345 276.653 200.351L262.762 200.443C262.564 201.348 262.351 202.248 262.123 203.141L274.493 209.445C275.355 209.884 274.965 211.192 274.003 211.086L260.199 209.567C259.897 210.443 259.58 211.313 259.248 212.175L270.799 219.868C271.605 220.404 271.065 221.657 270.122 221.441L256.584 218.332C256.182 219.166 255.766 219.991 255.336 220.809L265.919 229.793C266.656 230.419 265.975 231.601 265.063 231.276L251.97 226.617C251.474 227.396 250.965 228.167 250.444 228.928L259.917 239.085C260.576 239.792 259.763 240.887 258.895 240.459L246.424 234.31C245.842 235.026 245.248 235.732 244.643 236.427L252.875 247.619C253.448 248.398 252.513 249.391 251.701 248.865L240.026 241.31C239.366 241.954 238.694 242.587 238.012 243.208L244.888 255.279C245.366 256.119 244.322 256.997 243.577 256.38L232.863 247.526C232.132 248.089 231.391 248.641 230.64 249.18L236.064 261.962C236.441 262.852 235.303 263.602 234.634 262.904L225.027 252.873C224.235 253.349 223.434 253.812 222.624 254.261L226.522 267.577C226.794 268.505 225.576 269.118 224.992 268.346L216.622 257.276C215.779 257.657 214.928 258.024 214.07 258.377L216.392 272.048C216.554 273.002 215.273 273.469 214.783 272.635L207.758 260.671C206.876 260.95 205.988 261.215 205.094 261.466L205.81 275.315C205.86 276.281 204.534 276.596 204.144 275.711L198.555 263.007C197.648 263.182 196.736 263.341 195.82 263.485L194.92 277.334C194.857 278.299 193.503 278.457 193.219 277.533L189.141 264.256C188.223 264.324 187.301 264.377 186.375 264.415L183.868 278.076C183.694 279.027 182.33 279.027 182.156 278.076L179.649 264.415C178.723 264.377 177.801 264.324 176.883 264.256L172.805 277.533C172.521 278.457 171.167 278.299 171.104 277.334L170.204 263.485C169.288 263.341 168.376 263.182 167.469 263.007L161.88 275.711C161.491 276.596 160.164 276.281 160.214 275.315L160.93 261.466C160.036 261.216 159.148 260.951 158.266 260.671L151.241 272.635C150.751 273.469 149.47 273.002 149.632 272.048L151.954 258.377C151.096 258.024 150.245 257.657 149.402 257.277L141.032 268.346C140.448 269.118 139.23 268.505 139.502 267.577L143.4 254.262C142.59 253.812 141.789 253.349 140.996 252.873L131.39 262.904C130.721 263.602 129.583 262.852 129.96 261.962L135.383 249.181C134.633 248.642 133.892 248.09 133.161 247.526L122.447 256.38C121.702 256.997 120.658 256.119 121.136 255.279L128.011 243.209C127.329 242.587 126.658 241.954 125.997 241.311L114.324 248.865C113.511 249.391 112.576 248.398 113.149 247.619L121.381 236.428C120.775 235.732 120.181 235.026 119.599 234.31L107.129 240.459C106.261 240.887 105.448 239.792 106.107 239.085L115.579 228.929C115.058 228.168 114.549 227.397 114.053 226.617L100.961 231.276C100.049 231.601 99.3679 230.419 100.105 229.793L110.687 220.81C110.257 219.992 109.841 219.166 109.439 218.332L95.9019 221.441C94.9589 221.657 94.4193 220.404 95.2246 219.868L106.775 212.175C106.443 211.313 106.126 210.444 105.824 209.568L92.0212 211.086C91.0594 211.192 90.6687 209.884 91.5308 209.445L103.9 203.142C103.672 202.248 103.459 201.348 103.261 200.443L89.3708 200.351C88.4033 200.345 88.1667 199.001 89.0739 198.665L102.102 193.834C101.981 192.922 101.874 192.005 101.783 191.084L87.9866 189.382C87.0263 189.264 86.9471 187.901 87.8872 187.672L101.398 184.382C101.391 183.923 101.387 183.463 101.387 183.002C101.387 182.539 101.391 182.078 101.399 181.617L87.8872 178.327C86.9471 178.098 87.0263 176.736 87.9866 176.617L101.784 174.915C101.875 173.994 101.981 173.077 102.102 172.166L89.0739 167.334C88.1667 166.998 88.4033 165.654 89.3708 165.648L103.262 165.556C103.46 164.651 103.673 163.752 103.901 162.858L91.5308 156.554C90.6687 156.115 91.0594 154.808 92.0212 154.913L105.825 156.432C106.128 155.556 106.445 154.687 106.776 153.825L95.2246 146.131C94.4194 145.595 94.9589 144.342 95.9019 144.558L109.44 147.667C109.843 146.834 110.259 146.008 110.689 145.191L100.105 136.206C99.3679 135.58 100.049 134.399 100.961 134.723L114.055 139.383C114.551 138.604 115.06 137.833 115.581 137.072L106.107 126.914C105.448 126.207 106.261 125.112 107.129 125.54L119.601 131.69C120.183 130.975 120.777 130.269 121.383 129.574L113.149 118.381C112.576 117.601 113.511 116.609 114.324 117.134L126 124.69C126.66 124.047 127.331 123.414 128.013 122.793L121.136 110.72C120.658 109.88 121.702 109.002 122.447 109.619L133.164 118.475C133.894 117.912 134.635 117.361 135.385 116.822L129.96 104.037C129.583 103.147 130.721 102.397 131.39 103.095L140.999 113.128C141.791 112.653 142.591 112.19 143.401 111.741L139.502 98.4223C139.23 97.4941 140.448 96.8814 141.032 97.6528L149.404 108.726C150.247 108.345 151.097 107.979 151.955 107.626L149.632 93.9509C149.47 92.9975 150.751 92.5305 151.241 93.3644L158.268 105.332C159.149 105.052 160.037 104.787 160.93 104.537L160.214 90.6838C160.164 89.7181 161.491 89.4032 161.88 90.2883L167.471 102.996C168.377 102.822 169.288 102.662 170.204 102.518L171.104 88.6654C171.167 87.7004 172.521 87.5419 172.805 88.4662L176.884 101.747C177.801 101.679 178.723 101.626 179.649 101.589L182.156 87.9228ZM183.005 251.626C220.906 251.626 251.63 220.901 251.63 183.001C251.63 145.1 220.906 114.375 183.005 114.375C145.105 114.375 114.38 145.1 114.38 183.001C114.38 220.901 145.105 251.626 183.005 251.626Z" fill="url(#paint1_linear_515_754)"/>
<g filter="url(#filter0_d_515_754)">
<path fill-rule="evenodd" clip-rule="evenodd" d="M184.037 36.2913C183.859 35.0962 182.135 35.0963 181.957 36.2913L178.516 59.4104C176.7 59.4751 174.894 59.5789 173.099 59.7211L166.998 37.1626C166.682 35.9963 164.971 36.1963 164.933 37.404L164.199 60.7504C162.402 61.0244 160.618 61.3371 158.848 61.6876L150.175 40.0061C149.727 38.8843 148.05 39.2817 148.152 40.4856L150.132 63.7455C148.38 64.2273 146.643 64.7468 144.923 65.3029L133.797 44.7834C133.221 43.7212 131.601 44.3106 131.843 45.4945L136.51 68.3659C134.827 69.0489 133.163 69.7678 131.519 70.5218L118.084 51.4297C117.388 50.4416 115.848 51.2151 116.226 52.3629L123.519 74.5473C121.93 75.4206 120.363 76.3278 118.817 77.2679L103.248 59.8554C102.443 58.9547 101.003 59.9017 101.511 60.998L111.337 82.198C109.862 83.2482 108.412 84.3299 106.986 85.4422L89.4914 69.9464C88.5869 69.1452 87.2667 70.253 87.8986 71.2829L100.124 91.2067C98.7817 92.419 97.4665 93.6602 96.1791 94.9295L76.999 81.5662C76.0077 80.8755 74.825 82.129 75.5721 83.0786L90.0271 101.448C88.8344 102.807 87.6711 104.192 86.538 105.602L65.9401 94.5577C64.8752 93.9868 63.846 95.3692 64.6984 96.2255L81.1813 112.786C80.1534 114.274 79.1572 115.785 78.1938 117.319L56.4641 108.745C55.3402 108.302 54.4784 109.794 55.4245 110.546L73.708 125.072C72.8594 126.67 72.0448 128.289 71.2652 129.927L48.6992 123.937C47.5314 123.627 46.8488 125.21 47.8757 125.846L67.7147 138.147C67.0585 139.833 66.4382 141.536 65.8547 143.257L42.7506 139.927C41.5547 139.755 41.0604 141.406 42.1542 141.919L63.2901 151.836C62.8363 153.584 62.4197 155.347 62.0413 157.125L38.6985 156.5C37.4907 156.468 37.1914 158.165 38.3374 158.548L60.4962 165.948C60.2499 167.734 60.0418 169.532 59.8727 171.341L36.5978 173.432C35.3944 173.54 35.2942 175.26 36.4769 175.507L59.3594 180.288C59.3401 181.19 59.3303 182.093 59.3303 182.999C59.3303 183.906 59.3401 184.81 59.3595 185.712L36.4769 190.492C35.2942 190.74 35.3944 192.46 36.5978 192.568L59.8728 194.659C60.042 196.468 60.2501 198.266 60.4964 200.052L38.3374 207.452C37.1914 207.835 37.4907 209.532 38.6985 209.499L62.0416 208.875C62.42 210.652 62.8366 212.416 63.2905 214.164L42.1542 224.081C41.0604 224.594 41.5547 226.245 42.7506 226.072L65.8551 222.743C66.4386 224.464 67.0589 226.167 67.7151 227.852L47.8757 240.154C46.8488 240.79 47.5314 242.373 48.6992 242.063L71.2658 236.073C72.0454 237.711 72.8599 239.329 73.7085 240.927L55.4245 255.454C54.4784 256.206 55.3402 257.698 56.4641 257.255L78.1945 248.68C79.1579 250.214 80.154 251.726 81.1819 253.214L64.6984 269.774C63.8461 270.631 64.8752 272.013 65.9401 271.442L86.5388 260.397C87.6718 261.808 88.8351 263.193 90.0277 264.551L75.5721 282.921C74.825 283.871 76.0077 285.124 76.999 284.434L96.1799 271.07C97.4673 272.339 98.7823 273.58 100.124 274.792L87.8986 294.717C87.2667 295.747 88.587 296.855 89.4914 296.054L106.987 280.557C108.412 281.669 109.863 282.751 111.337 283.801L101.511 305.002C101.003 306.098 102.443 307.045 103.248 306.145L118.818 288.731C120.363 289.671 121.931 290.578 123.52 291.451L116.226 313.637C115.848 314.785 117.388 315.558 118.084 314.57L131.519 295.477C133.164 296.231 134.828 296.95 136.51 297.633L131.843 320.505C131.601 321.689 133.221 322.279 133.797 321.217L144.924 300.696C146.644 301.252 148.38 301.771 150.133 302.253L148.152 325.514C148.05 326.718 149.727 327.116 150.175 325.994L158.848 304.311C160.618 304.661 162.402 304.974 164.199 305.248L164.933 328.596C164.971 329.804 166.682 330.004 166.998 328.837L173.099 306.277C174.894 306.42 176.7 306.523 178.516 306.588L181.957 329.709C182.135 330.904 183.859 330.904 184.037 329.709L187.479 306.588C189.294 306.524 191.1 306.42 192.895 306.278L198.996 328.837C199.312 330.004 201.023 329.804 201.061 328.596L201.795 305.248C203.592 304.975 205.376 304.662 207.146 304.311L215.819 325.994C216.267 327.116 217.944 326.718 217.842 325.514L215.862 302.254C217.614 301.772 219.351 301.253 221.071 300.697L232.197 321.217C232.773 322.279 234.393 321.689 234.151 320.505L229.484 297.634C231.167 296.951 232.831 296.232 234.475 295.478L247.91 314.57C248.606 315.558 250.146 314.785 249.768 313.637L242.475 291.453C244.064 290.579 245.632 289.672 247.177 288.732L262.746 306.145C263.551 307.045 264.991 306.098 264.483 305.002L254.658 283.802C256.132 282.752 257.583 281.67 259.008 280.558L276.503 296.054C277.407 296.855 278.727 295.747 278.095 294.717L265.871 274.794C267.213 273.581 268.528 272.34 269.816 271.071L288.995 284.434C289.986 285.124 291.169 283.871 290.422 282.921L275.968 264.553C277.16 263.194 278.324 261.809 279.457 260.398L300.054 271.442C301.119 272.013 302.148 270.631 301.296 269.774L284.814 253.215C285.842 251.727 286.838 250.215 287.802 248.681L309.53 257.255C310.654 257.698 311.516 256.206 310.57 255.454L292.287 240.929C293.136 239.331 293.951 237.712 294.73 236.073L317.295 242.063C318.463 242.373 319.145 240.79 318.118 240.154L298.281 227.854C298.937 226.168 299.558 224.464 300.141 222.744L323.243 226.072C324.439 226.245 324.934 224.594 323.84 224.081L302.706 214.165C303.16 212.417 303.577 210.653 303.955 208.875L327.296 209.499C328.503 209.532 328.803 207.835 327.657 207.452L305.5 200.052C305.746 198.267 305.955 196.468 306.124 194.659L329.396 192.568C330.6 192.46 330.7 190.74 329.517 190.492L306.637 185.712C306.656 184.81 306.666 183.906 306.666 182.999C306.666 182.093 306.656 181.189 306.637 180.288L329.517 175.507C330.7 175.26 330.6 173.54 329.396 173.432L306.124 171.341C305.955 169.531 305.747 167.733 305.5 165.947L327.657 158.548C328.803 158.165 328.503 156.468 327.296 156.5L303.955 157.125C303.577 155.347 303.16 153.583 302.706 151.834L323.84 141.919C324.934 141.406 324.439 139.755 323.243 139.927L300.142 143.256C299.558 141.536 298.938 139.832 298.281 138.146L318.118 125.846C319.145 125.21 318.463 123.627 317.295 123.937L294.731 129.926C293.951 128.288 293.137 126.669 292.288 125.071L310.57 110.546C311.516 109.794 310.654 108.302 309.53 108.745L287.802 117.318C286.839 115.784 285.842 114.272 284.814 112.784L301.296 96.2255C302.148 95.3692 301.119 93.9868 300.054 94.5577L279.458 105.601C278.325 104.191 277.161 102.805 275.968 101.447L290.422 83.0786C291.169 82.129 289.986 80.8755 288.995 81.5662L269.816 94.9285C268.529 93.6591 267.213 92.4176 265.871 91.2052L278.095 71.2829C278.727 70.253 277.407 69.1452 276.503 69.9464L259.009 85.4411C257.584 84.3288 256.133 83.2469 254.658 82.1967L264.483 60.9979C264.991 59.9017 263.551 58.9547 262.746 59.8554L247.178 77.2669C245.632 76.3267 244.064 75.4195 242.475 74.5461L249.768 52.3629C250.146 51.2151 248.606 50.4416 247.91 51.4297L234.476 70.5209C232.831 69.7669 231.167 69.0479 229.484 68.3649L234.151 45.4945C234.393 44.3106 232.773 43.7212 232.197 44.7834L221.072 65.3022C219.351 64.7461 217.614 64.2266 215.862 63.7448L217.842 40.4856C217.944 39.2817 216.267 38.8843 215.819 40.0061L207.147 61.6871C205.376 61.3367 203.592 61.024 201.795 60.75L201.061 37.404C201.023 36.1963 199.312 35.9963 198.996 37.1626L192.895 59.7209C191.1 59.5788 189.294 59.4749 187.478 59.4103L184.037 36.2913ZM272.862 174.889C285.135 174.889 294.999 164.34 291.571 152.555C278.196 106.564 235.278 72.9135 184.401 72.9135C174.585 72.9135 165.066 74.166 155.998 76.518C144.113 79.6006 140.021 93.4426 146.246 104.026L181.804 164.479C185.598 170.929 192.521 174.889 200.004 174.889H272.862ZM134.475 109.916C128.38 99.5542 114.697 96.2555 106.087 104.646C85.606 124.607 72.9121 152.34 72.9121 183C72.9121 212.989 85.0559 240.177 104.753 260.031C113.302 268.648 127.17 265.416 133.324 254.953L170.257 192.161C174.144 185.553 174.144 177.358 170.257 170.751L134.475 109.916ZM181.803 198.433C185.597 191.983 192.521 188.023 200.004 188.023H273.678C285.717 188.023 295.512 198.181 292.55 209.849C280.412 257.671 236.595 293.087 184.401 293.087C173.925 293.087 163.787 291.66 154.175 288.993C142.457 285.741 138.516 272.027 144.682 261.545L181.803 198.433ZM183.065 188.899C186.42 188.899 189.141 186.178 189.141 182.823C189.141 179.467 186.42 176.747 183.065 176.747C179.709 176.747 176.989 179.467 176.989 182.823C176.989 186.178 179.709 188.899 183.065 188.899Z" fill="url(#paint2_linear_515_754)"/>
</g>
</g>
<defs>
<filter id="filter0_d_515_754" x="30.3852" y="35.395" width="305.224" height="305.721" filterUnits="userSpaceOnUse" color-interpolation-filters="sRGB">
<feFlood flood-opacity="0" result="BackgroundImageFix"/>
<feColorMatrix in="SourceAlpha" type="matrix" values="0 0 0 0 0 0 0 0 0 0 0 0 0 0 0 0 0 0 127 0" result="hardAlpha"/>
<feOffset dy="5.2554"/>
<feGaussianBlur stdDeviation="2.6277"/>
<feColorMatrix type="matrix" values="0 0 0 0 0 0 0 0 0 0 0 0 0 0 0 0 0 0 0.45 0"/>
<feBlend mode="normal" in2="BackgroundImageFix" result="effect1_dropShadow_515_754"/>
<feBlend mode="normal" in="SourceGraphic" in2="effect1_dropShadow_515_754" result="shape"/>
</filter>
<linearGradient id="paint0_linear_515_754" x1="183" y1="0" x2="183" y2="366" gradientUnits="userSpaceOnUse">
<stop stop-color="#E8E8E8"/>
<stop offset="1" stop-color="#919195"/>
</linearGradient>
<linearGradient id="paint1_linear_515_754" x1="183.012" y1="91.4991" x2="183.012" y2="274.499" gradientUnits="userSpaceOnUse">
<stop stop-color="#B4B4B8"/>
<stop offset="1" stop-color="#B4B4B8"/>
</linearGradient>
<linearGradient id="paint2_linear_515_754" x1="183.117" y1="37.5603" x2="184.761" y2="330.785" gradientUnits="userSpaceOnUse">
<stop offset="0.193294" stop-color="#D4D4D8"/>
<stop offset="0.830878" stop-color="#9D9DA1"/>
</linearGradient>
<clipPath id="clip0_515_754">
<rect width="366" height="366" fill="white"/>
</clipPath>
</defs>
</svg>
