<svg width="366" height="366" viewBox="0 0 366 366" fill="none" xmlns="http://www.w3.org/2000/svg">
<g clip-path="url(#clip0_515_730)">
<path d="M0 130.133C0 84.5824 0 61.8069 8.8648 44.4088C16.6625 29.1049 29.1049 16.6625 44.4088 8.8648C61.8069 0 84.5824 0 130.133 0H235.867C281.418 0 304.193 0 321.591 8.8648C336.895 16.6625 349.337 29.1049 357.135 44.4088C366 61.8069 366 84.5824 366 130.133V235.867C366 281.418 366 304.193 357.135 321.591C349.337 336.895 336.895 349.337 321.591 357.135C304.193 366 281.418 366 235.867 366H130.133C84.5824 366 61.8069 366 44.4088 357.135C29.1049 349.337 16.6625 336.895 8.8648 321.591C0 304.193 0 281.418 0 235.867V130.133Z" fill="url(#paint0_linear_515_730)"/>
<path d="M316.676 175.136C316.676 236.329 256.827 285.936 183 285.936C171.818 285.936 160.957 284.798 150.576 282.655C147.44 282.007 144.17 281.921 141.339 283.418C132.067 288.321 116.809 300.734 96.9399 301.614C96.043 301.653 95.5413 300.623 96.0931 299.915C107.836 284.845 115.488 270.918 110.443 268.21C73.6624 248.47 49.3242 214.159 49.3242 175.136C49.3242 113.943 109.173 64.3359 183 64.3359C256.827 64.3359 316.676 113.943 316.676 175.136Z" fill="white"/>
</g>
<defs>
<linearGradient id="paint0_linear_515_730" x1="183" y1="0" x2="183" y2="366" gradientUnits="userSpaceOnUse">
<stop stop-color="#5AF575"/>
<stop offset="1" stop-color="#08BD2B"/>
</linearGradient>
<clipPath id="clip0_515_730">
<rect width="366" height="366" fill="white"/>
</clipPath>
</defs>
</svg>
