<svg width="366" height="366" viewBox="0 0 366 366" fill="none" xmlns="http://www.w3.org/2000/svg">
<g clip-path="url(#clip0_515_800)">
<path d="M0 130.133C0 84.5824 0 61.8069 8.8648 44.4088C16.6625 29.1049 29.1049 16.6625 44.4088 8.8648C61.8069 0 84.5824 0 130.133 0H235.867C281.418 0 304.193 0 321.591 8.8648C336.895 16.6625 349.338 29.1049 357.135 44.4088C366 61.8069 366 84.5824 366 130.133V235.867C366 281.418 366 304.193 357.135 321.591C349.338 336.895 336.895 349.338 321.591 357.135C304.193 366 281.418 366 235.867 366H130.133C84.5824 366 61.8069 366 44.4088 357.135C29.1049 349.338 16.6625 336.895 8.8648 321.591C0 304.193 0 281.418 0 235.867V130.133Z" fill="url(#paint0_linear_515_800)"/>
<path d="M91.1088 259.642H275.908C287.711 259.642 295.001 253.162 295.001 243.558C295.001 231.408 283.776 220.877 273.362 210.81C265.956 203.52 263.758 188.477 262.716 175.517C262.369 167.995 261.79 160.821 260.865 153.878C254.847 156.423 248.136 157.928 241.193 157.928C210.297 157.928 184.955 132.586 184.955 101.69C184.955 87.4566 190.393 74.4963 199.188 64.6604C194.559 62.1147 189.236 60.8418 183.45 60.8418C166.324 60.8418 153.827 72.5291 149.083 87.8037C118.996 98.681 106.615 128.652 104.995 171.235C103.606 186.394 101.639 202.941 93.5389 210.81C83.1244 220.877 72.0156 231.408 72.0156 243.558C72.0156 253.162 79.19 259.642 91.1088 259.642ZM241.309 141.612C263.063 141.612 281.231 123.56 281.231 101.69C281.231 79.7036 263.063 61.7675 241.309 61.7675C219.323 61.7675 201.386 79.7036 201.386 101.69C201.386 123.56 219.323 141.612 241.309 141.612ZM183.566 307.202C203.932 307.202 218.86 292.622 220.364 275.727H146.653C148.157 292.622 163.084 307.202 183.566 307.202Z" fill="white"/>
</g>
<defs>
<linearGradient id="paint0_linear_515_800" x1="183" y1="0" x2="183" y2="366" gradientUnits="userSpaceOnUse">
<stop stop-color="#FB5976"/>
<stop offset="1" stop-color="#FA243B"/>
</linearGradient>
<clipPath id="clip0_515_800">
<rect width="366" height="366" fill="white"/>
</clipPath>
</defs>
</svg>
