<svg width="366" height="366" viewBox="0 0 366 366" fill="none" xmlns="http://www.w3.org/2000/svg">
<g clip-path="url(#clip0_515_783)">
<path d="M0 130.133C0 84.5824 0 61.8069 8.8648 44.4088C16.6625 29.1049 29.1049 16.6625 44.4088 8.8648C61.8069 0 84.5824 0 130.133 0H235.867C281.418 0 304.193 0 321.591 8.8648C336.895 16.6625 349.337 29.1049 357.135 44.4088C366 61.8069 366 84.5824 366 130.133V235.867C366 281.418 366 304.193 357.135 321.591C349.337 336.895 336.895 349.337 321.591 357.135C304.193 366 281.418 366 235.867 366H130.133C84.5824 366 61.8069 366 44.4088 357.135C29.1049 349.337 16.6625 336.895 8.8648 321.591C0 304.193 0 281.418 0 235.867V130.133Z" fill="#202020"/>
<path d="M46.4551 122.188C46.4551 107.997 46.4551 100.901 49.2168 95.481C51.6461 90.7133 55.5224 86.837 60.2901 84.4077C65.7103 81.646 72.8057 81.646 86.9966 81.646H277.598C291.789 81.646 298.884 81.646 304.305 84.4077C309.072 86.837 312.949 90.7133 315.378 95.481C318.14 100.901 318.14 107.997 318.14 122.188V243.812C318.14 258.003 318.14 265.098 315.378 270.519C312.949 275.286 309.072 279.163 304.305 281.592C298.884 284.354 291.789 284.354 277.598 284.354H86.9966C72.8057 284.354 65.7103 284.354 60.2901 281.592C55.5224 279.163 51.6461 275.286 49.2168 270.519C46.4551 265.098 46.4551 258.003 46.4551 243.812V122.188Z" fill="#D9D9D9"/>
<path d="M59.1237 118.247C59.1237 110.363 59.1237 106.421 60.658 103.41C62.0076 100.761 64.161 98.6075 66.8098 97.2579C69.821 95.7236 73.7629 95.7236 81.6467 95.7236H284.354C292.238 95.7236 296.18 95.7236 299.191 97.2579C301.84 98.6075 303.994 100.761 305.343 103.41C306.878 106.421 306.878 110.363 306.878 118.247V174.554C306.878 182.438 306.878 186.38 305.343 189.391C303.994 192.04 301.84 194.194 299.191 195.543C296.18 197.077 292.238 197.077 284.354 197.077H81.6467C73.7629 197.077 69.821 197.077 66.8098 195.543C64.161 194.194 62.0076 192.04 60.658 189.391C59.1237 186.38 59.1237 182.438 59.1237 174.554V118.247Z" fill="#3BA2D6"/>
<path d="M59.1243 139.361C59.1243 131.477 59.1243 127.535 60.6586 124.524C62.0082 121.876 64.1617 119.722 66.8104 118.372C69.8216 116.838 73.7635 116.838 81.6473 116.838H284.355C292.239 116.838 296.181 116.838 299.192 118.372C301.841 119.722 303.994 121.876 305.344 124.524C306.878 127.535 306.878 131.477 306.878 139.361V195.669C306.878 203.553 306.878 207.495 305.344 210.506C303.994 213.155 301.841 215.308 299.192 216.658C296.181 218.192 292.239 218.192 284.355 218.192H81.6473C73.7635 218.192 69.8216 218.192 66.8104 216.658C64.1617 215.308 62.0082 213.155 60.6586 210.506C59.1243 207.495 59.1243 203.553 59.1243 195.669V139.361Z" fill="#F8B636"/>
<path d="M59.1243 163.292C59.1243 155.408 59.1243 151.466 60.6586 148.455C62.0082 145.806 64.1617 143.653 66.8104 142.303C69.8216 140.769 73.7635 140.769 81.6473 140.769H284.355C292.239 140.769 296.181 140.769 299.192 142.303C301.841 143.653 303.994 145.806 305.344 148.455C306.878 151.466 306.878 155.408 306.878 163.292V219.6C306.878 227.484 306.878 231.426 305.344 234.437C303.994 237.085 301.841 239.239 299.192 240.589C296.181 242.123 292.239 242.123 284.355 242.123H81.6473C73.7635 242.123 69.8216 242.123 66.8104 240.589C64.1617 239.239 62.0082 237.085 60.6586 234.437C59.1243 231.426 59.1243 227.484 59.1243 219.6V163.292Z" fill="#5ABD4C"/>
<path d="M59.1243 185.815C59.1243 177.931 59.1243 173.989 60.6586 170.978C62.0082 168.329 64.1617 166.176 66.8104 164.826C69.8216 163.292 73.7635 163.292 81.6473 163.292H284.355C292.239 163.292 296.181 163.292 299.192 164.826C301.841 166.176 303.994 168.329 305.344 170.978C306.878 173.989 306.878 177.931 306.878 185.815V242.123C306.878 250.007 306.878 253.948 305.344 256.96C303.994 259.608 301.841 261.762 299.192 263.112C296.181 264.646 292.239 264.646 284.355 264.646H81.6473C73.7635 264.646 69.8216 264.646 66.8104 263.112C64.1617 261.762 62.0082 259.608 60.6586 256.96C59.1243 253.948 59.1243 250.007 59.1243 242.123V185.815Z" fill="#F17968"/>
<g filter="url(#filter0_d_515_783)">
<path d="M46.4551 181.592H119.16C125.595 181.592 128.813 181.592 131.802 182.25C136.48 183.279 140.817 185.484 144.404 188.657C146.697 190.685 148.593 193.285 152.384 198.484L155.43 202.662C156.247 203.782 156.655 204.341 157.066 204.854C162.122 211.148 169.637 214.969 177.702 215.346C178.359 215.377 179.051 215.377 180.437 215.377C181.66 215.377 182.272 215.377 182.859 215.352C190.042 215.052 196.838 212.016 201.854 206.866C202.263 206.446 202.672 205.99 203.488 205.079L211.1 196.581C216.044 191.062 218.516 188.303 221.484 186.324C224.115 184.569 227.022 183.27 230.083 182.482C233.538 181.592 237.243 181.592 244.652 181.592H318.14V243.812C318.14 258.003 318.14 265.098 315.378 270.519C312.949 275.286 309.072 279.163 304.305 281.592C298.884 284.354 291.789 284.354 277.598 284.354H86.9966C72.8057 284.354 65.7103 284.354 60.2901 281.592C55.5224 279.163 51.6461 275.286 49.2168 270.519C46.4551 265.098 46.4551 258.003 46.4551 243.812V181.592Z" fill="#D9D9D9"/>
</g>
</g>
<defs>
<filter id="filter0_d_515_783" x="42.232" y="175.961" width="280.131" height="111.208" filterUnits="userSpaceOnUse" color-interpolation-filters="sRGB">
<feFlood flood-opacity="0" result="BackgroundImageFix"/>
<feColorMatrix in="SourceAlpha" type="matrix" values="0 0 0 0 0 0 0 0 0 0 0 0 0 0 0 0 0 0 127 0" result="hardAlpha"/>
<feOffset dy="-1.40769"/>
<feGaussianBlur stdDeviation="2.11154"/>
<feComposite in2="hardAlpha" operator="out"/>
<feColorMatrix type="matrix" values="0 0 0 0 0 0 0 0 0 0 0 0 0 0 0 0 0 0 0.25 0"/>
<feBlend mode="normal" in2="BackgroundImageFix" result="effect1_dropShadow_515_783"/>
<feBlend mode="normal" in="SourceGraphic" in2="effect1_dropShadow_515_783" result="shape"/>
</filter>
<clipPath id="clip0_515_783">
<rect width="366" height="366" fill="white"/>
</clipPath>
</defs>
</svg>
