<svg width="96" height="96" viewBox="0 0 96 96" fill="none" xmlns="http://www.w3.org/2000/svg">
<rect width="96" height="96" rx="24" fill="white"/>
<path d="M15.5652 62.2207L38.1582 23.5538C41.0292 25.2428 55.5008 33.2489 57.8372 34.7714L35.2437 73.441C32.7729 76.7043 12.4348 67.1724 15.5652 62.2191V62.2218V62.2207Z" fill="#FBBC04"/>
<path d="M80.4777 62.218L57.8851 23.5565C54.7272 18.3008 47.9246 16.3912 42.337 19.4947C36.7499 22.5983 35.0485 29.2836 38.2072 34.7728L60.8013 73.4397C63.9594 78.6933 70.7618 80.6013 76.3495 77.4974C81.6925 74.3963 83.6384 67.4741 80.4777 62.2232V62.2178V62.218Z" fill="#4285F4"/>
<path d="M36.6824 67.9367C36.6824 68.1177 36.6778 68.2984 36.6687 68.4792C36.6597 68.6599 36.646 68.8403 36.6278 69.0202C36.6095 69.2004 36.5868 69.3798 36.5597 69.5588C36.5324 69.7378 36.5007 69.9161 36.4645 70.0936C36.4282 70.2709 36.3876 70.4474 36.3424 70.6229C36.2974 70.7985 36.2478 70.9727 36.194 71.1459C36.1401 71.319 36.0819 71.4907 36.0194 71.6611C35.9569 71.8314 35.8902 72.0003 35.819 72.1673C35.7481 72.3346 35.6729 72.5 35.5935 72.6634C35.5141 72.8271 35.4306 72.9886 35.3431 73.1482C35.2556 73.3078 35.1643 73.4651 35.0689 73.6204C34.9733 73.7756 34.8741 73.9283 34.7711 74.0788C34.6678 74.2292 34.5611 74.3771 34.4505 74.5224C34.34 74.6678 34.2257 74.8103 34.1081 74.9503C33.9902 75.0901 33.8691 75.227 33.7445 75.3612C33.6199 75.4952 33.4918 75.6261 33.3607 75.754C33.2293 75.8821 33.0949 76.0067 32.9574 76.1282C32.82 76.2497 32.6794 76.368 32.536 76.4828C32.3925 76.5976 32.2462 76.7087 32.0972 76.8166C31.948 76.9243 31.7962 77.0285 31.642 77.129C31.4876 77.2296 31.3309 77.3263 31.1717 77.4194C31.0125 77.5123 30.851 77.6015 30.6873 77.6869C30.5237 77.772 30.358 77.8534 30.1901 77.9307C30.0224 78.0082 29.8526 78.0814 29.6813 78.1506C29.5098 78.2199 29.3366 78.285 29.162 78.346C28.9872 78.407 28.811 78.4637 28.6334 78.5162C28.4557 78.5687 28.2769 78.6169 28.0969 78.661C27.9167 78.7048 27.7358 78.7444 27.5537 78.7798C27.3716 78.8152 27.1889 78.8459 27.0053 78.8725C26.8217 78.8992 26.6375 78.9213 26.4529 78.939C26.2681 78.9567 26.0831 78.97 25.8976 78.979C25.7122 78.9878 25.5268 78.9923 25.3411 78.9923C25.1555 78.9923 24.97 78.9878 24.7846 78.979C24.5993 78.97 24.4143 78.9567 24.2295 78.939C24.0449 78.9213 23.8607 78.8992 23.6771 78.8725C23.4934 78.8459 23.3106 78.8152 23.1287 78.7798C22.9466 78.7444 22.7654 78.7048 22.5855 78.661C22.4055 78.6169 22.2267 78.5687 22.049 78.5162C21.8713 78.4637 21.6952 78.407 21.5204 78.346C21.3456 78.285 21.1726 78.2199 21.0011 78.1506C20.8295 78.0814 20.6599 78.0082 20.4921 77.9307C20.3244 77.8534 20.1587 77.772 19.995 77.6869C19.8312 77.6015 19.6699 77.5123 19.5107 77.4194C19.3514 77.3263 19.1947 77.2296 19.0403 77.129C18.8859 77.0285 18.7342 76.9243 18.5852 76.8166C18.4362 76.7087 18.2899 76.5976 18.1464 76.4828C18.003 76.368 17.8624 76.2497 17.7249 76.1282C17.5872 76.0067 17.453 75.8821 17.3217 75.754C17.1904 75.6261 17.0625 75.4952 16.9379 75.3612C16.8133 75.227 16.692 75.0901 16.5743 74.9503C16.4566 74.8103 16.3424 74.6678 16.2318 74.5224C16.1213 74.3771 16.0144 74.2292 15.9113 74.0788C15.8082 73.9283 15.7088 73.7756 15.6135 73.6204C15.5181 73.4651 15.4266 73.3078 15.3391 73.1482C15.2516 72.9886 15.1681 72.8271 15.0889 72.6634C15.0095 72.5 14.9343 72.3346 14.8632 72.1673C14.7922 72.0003 14.7255 71.8314 14.663 71.6611C14.6003 71.4907 14.5422 71.319 14.4882 71.1459C14.4344 70.9727 14.385 70.7985 14.3398 70.6229C14.2948 70.4474 14.254 70.2709 14.2179 70.0936C14.1817 69.9161 14.15 69.7378 14.1227 69.5588C14.0954 69.3798 14.0727 69.2004 14.0546 69.0202C14.0363 68.8403 14.0227 68.6599 14.0137 68.4792C14.0044 68.2984 14 68.1177 14 67.9367C14 67.7558 14.0044 67.5748 14.0137 67.3941C14.0227 67.2135 14.0363 67.033 14.0546 66.853C14.0727 66.673 14.0954 66.4934 14.1227 66.3144C14.15 66.1354 14.1817 65.9574 14.2179 65.7799C14.254 65.6024 14.2948 65.4259 14.3398 65.2503C14.385 65.0748 14.4344 64.9006 14.4882 64.7273C14.5422 64.5543 14.6003 64.3825 14.663 64.2122C14.7255 64.0418 14.7922 63.873 14.8632 63.7059C14.9343 63.5386 15.0095 63.3732 15.0889 63.2098C15.1681 63.0462 15.2516 62.8847 15.3391 62.7251C15.4266 62.5655 15.5181 62.4082 15.6135 62.253C15.7088 62.0978 15.8082 61.945 15.9113 61.7944C16.0144 61.644 16.1213 61.4962 16.2318 61.3508C16.3424 61.2054 16.4566 61.063 16.5743 60.923C16.692 60.7832 16.8133 60.6463 16.9379 60.5123C17.0625 60.378 17.1904 60.2471 17.3217 60.1192C17.453 59.9912 17.5872 59.8666 17.7249 59.745C17.8624 59.6235 18.003 59.5053 18.1464 59.3905C18.2899 59.2759 18.4362 59.1645 18.5852 59.0567C18.7342 58.949 18.8859 58.8448 19.0403 58.7442C19.1947 58.6438 19.3514 58.5469 19.5107 58.4541C19.6699 58.361 19.8312 58.2718 19.995 58.1866C20.1587 58.1012 20.3244 58.0199 20.4921 57.9426C20.6599 57.8651 20.8295 57.7918 21.0011 57.7226C21.1726 57.6534 21.3456 57.5882 21.5204 57.5272C21.6952 57.4663 21.8713 57.4096 22.049 57.3571C22.2267 57.3046 22.4055 57.2563 22.5855 57.2125C22.7654 57.1684 22.9466 57.1288 23.1287 57.0935C23.3106 57.0583 23.4934 57.0273 23.6771 57.0008C23.8607 56.9742 24.0449 56.9521 24.2295 56.9342C24.4143 56.9166 24.5993 56.9033 24.7846 56.8944C24.97 56.8856 25.1555 56.881 25.3411 56.881C25.5268 56.881 25.7122 56.8856 25.8976 56.8944C26.0831 56.9033 26.2681 56.9166 26.4529 56.9342C26.6375 56.9521 26.8217 56.9742 27.0053 57.0008C27.1889 57.0273 27.3716 57.0583 27.5537 57.0935C27.7358 57.1288 27.9167 57.1684 28.0969 57.2125C28.2769 57.2563 28.4557 57.3046 28.6334 57.3571C28.811 57.4096 28.9872 57.4663 29.162 57.5272C29.3366 57.5882 29.5098 57.6534 29.6813 57.7226C29.8526 57.7918 30.0224 57.8651 30.1901 57.9426C30.358 58.0199 30.5237 58.1012 30.6873 58.1866C30.851 58.2718 31.0125 58.361 31.1717 58.4541C31.3309 58.5469 31.4876 58.6438 31.642 58.7442C31.7962 58.8448 31.948 58.949 32.0972 59.0567C32.2462 59.1645 32.3925 59.2759 32.536 59.3905C32.6794 59.5053 32.82 59.6235 32.9574 59.745C33.0949 59.8666 33.2293 59.9912 33.3607 60.1192C33.4918 60.2471 33.6199 60.378 33.7445 60.5123C33.8691 60.6463 33.9902 60.7832 34.1081 60.923C34.2257 61.063 34.34 61.2054 34.4505 61.3508C34.5611 61.4962 34.6678 61.644 34.7711 61.7944C34.8741 61.945 34.9733 62.0978 35.0689 62.253C35.1643 62.4082 35.2556 62.5655 35.3431 62.7251C35.4306 62.8847 35.5141 63.0462 35.5935 63.2098C35.6729 63.3732 35.7481 63.5386 35.819 63.7059C35.8902 63.873 35.9569 64.0418 36.0194 64.2122C36.0819 64.3825 36.1401 64.5543 36.194 64.7273C36.2478 64.9006 36.2974 65.0748 36.3424 65.2503C36.3876 65.4259 36.4282 65.6024 36.4645 65.7799C36.5007 65.9574 36.5324 66.1354 36.5597 66.3144C36.5868 66.4934 36.6095 66.673 36.6278 66.853C36.646 67.033 36.6597 67.2135 36.6687 67.3941C36.6778 67.5748 36.6824 67.7558 36.6824 67.9367Z" fill="#34A853"/>
</svg>
