<svg width="366" height="366" viewBox="0 0 366 366" fill="none" xmlns="http://www.w3.org/2000/svg">
<g clip-path="url(#clip0_515_738)">
<path d="M0 130.133C0 84.5824 0 61.8069 8.8648 44.4088C16.6625 29.1049 29.1049 16.6625 44.4088 8.8648C61.8069 0 84.5824 0 130.133 0H235.867C281.418 0 304.193 0 321.591 8.8648C336.895 16.6625 349.337 29.1049 357.135 44.4088C366 61.8069 366 84.5824 366 130.133V235.867C366 281.418 366 304.193 357.135 321.591C349.337 336.895 336.895 349.337 321.591 357.135C304.193 366 281.418 366 235.867 366H130.133C84.5824 366 61.8069 366 44.4088 357.135C29.1049 349.337 16.6625 336.895 8.8648 321.591C0 304.193 0 281.418 0 235.867V130.133Z" fill="url(#paint0_linear_515_738)"/>
<path d="M79.7441 98.7261C79.7441 96.3573 81.6644 94.437 84.0332 94.437H104.049C106.418 94.437 108.338 96.3573 108.338 98.7261V101.585C108.338 103.954 106.418 105.874 104.049 105.874H84.0332C81.6644 105.874 79.7441 103.954 79.7441 101.585V98.7261Z" fill="#2E2E2F"/>
<path fill-rule="evenodd" clip-rule="evenodd" d="M215.048 83C224.147 83 232.262 88.7247 235.314 97.2968C238.366 105.869 246.482 111.594 255.581 111.594H289.274C305.018 111.594 317.781 124.395 317.781 140.187V254.562C317.781 270.353 305.018 283.155 289.274 283.155H77.5071C61.763 283.155 49 270.353 49 254.562V140.187C49 124.395 61.763 111.594 77.5071 111.594H111.2C120.3 111.594 128.415 105.869 131.467 97.2968C134.519 88.7247 142.634 83 151.734 83H215.048ZM236.048 193.085C236.048 222.169 212.472 245.745 183.388 245.745C154.305 245.745 130.728 222.169 130.728 193.085C130.728 164.002 154.305 140.425 183.388 140.425C212.472 140.425 236.048 164.002 236.048 193.085ZM244.15 193.085C244.15 226.643 216.946 253.847 183.388 253.847C149.83 253.847 122.626 226.643 122.626 193.085C122.626 159.528 149.83 132.324 183.388 132.324C216.946 132.324 244.15 159.528 244.15 193.085Z" fill="#2E2E2F"/>
<ellipse cx="250.58" cy="142.117" rx="8.2207" ry="8.22066" fill="#F7CE45"/>
</g>
<defs>
<linearGradient id="paint0_linear_515_738" x1="183" y1="0" x2="183" y2="366" gradientUnits="userSpaceOnUse">
<stop stop-color="#EFEFEF"/>
<stop offset="1" stop-color="#929296"/>
</linearGradient>
<clipPath id="clip0_515_738">
<rect width="366" height="366" fill="white"/>
</clipPath>
</defs>
</svg>
