<svg width="366" height="366" viewBox="0 0 366 366" fill="none" xmlns="http://www.w3.org/2000/svg">
<g clip-path="url(#clip0_515_734)">
<path d="M0 130.133C0 84.5824 0 61.8069 8.8648 44.4088C16.6625 29.1049 29.1049 16.6625 44.4088 8.8648C61.8069 0 84.5824 0 130.133 0H235.867C281.418 0 304.193 0 321.591 8.8648C336.895 16.6625 349.337 29.1049 357.135 44.4088C366 61.8069 366 84.5824 366 130.133V235.867C366 281.418 366 304.193 357.135 321.591C349.337 336.895 336.895 349.337 321.591 357.135C304.193 366 281.418 366 235.867 366H130.133C84.5824 366 61.8069 366 44.4088 357.135C29.1049 349.337 16.6625 336.895 8.8648 321.591C0 304.193 0 281.418 0 235.867V130.133Z" fill="url(#paint0_linear_515_734)"/>
<path d="M69.5197 130.05C54.4177 89.4315 80.4535 71.4165 99.2628 66.1815C102.453 65.2936 105.754 66.7311 107.647 69.4478L141.879 118.563C144.103 121.754 143.861 126.014 141.566 129.153C133.737 139.861 130.911 148.946 129.897 156.019C129.058 161.872 131.146 167.688 134.661 172.443C161.574 208.862 190.689 236.249 204.983 236.919C215.458 237.41 228.248 229.292 235.223 224.166C238.338 221.877 242.598 221.607 245.814 223.751L295.912 257.15C298.663 258.984 300.158 262.269 299.455 265.499C290.312 307.546 250.782 303.079 231.432 295.179C140.647 253.003 90.2501 185.808 69.5197 130.05Z" fill="#FEFEFE"/>
</g>
<defs>
<linearGradient id="paint0_linear_515_734" x1="183" y1="0" x2="183" y2="366" gradientUnits="userSpaceOnUse">
<stop stop-color="#5AF575"/>
<stop offset="1" stop-color="#08BD2B"/>
</linearGradient>
<clipPath id="clip0_515_734">
<rect width="366" height="366" fill="white"/>
</clipPath>
</defs>
</svg>
