<svg width="96" height="96" viewBox="0 0 96 96" fill="none" xmlns="http://www.w3.org/2000/svg">
<rect width="96" height="96" rx="24" fill="white"/>
<mask id="mask0_2204_143" style="mask-type:luminance" maskUnits="userSpaceOnUse" x="15" y="13" width="66" height="68">
<path d="M15 13H80.9767V81H15V13Z" fill="white"/>
</mask>
<g mask="url(#mask0_2204_143)">
<path d="M45.5278 14.0316L16.5413 43.0276C15.5645 44.0047 15.0162 45.329 15.0162 46.7104V77.5288C15.0162 79.4467 16.5689 81 18.4862 81H77.4759C79.393 81 80.9459 79.4467 80.9459 77.5288V46.7104C80.9459 45.329 80.3976 44.0047 79.4208 43.0294L50.4343 14.0316C49.0792 12.6762 46.8827 12.6762 45.5278 14.0316Z" fill="#FAFAFA"/>
</g>
<mask id="mask1_2204_143" style="mask-type:luminance" maskUnits="userSpaceOnUse" x="27" y="67" width="42" height="14">
<path d="M27.1182 67.099H68.8104V81H27.1182V67.099Z" fill="white"/>
</mask>
<g mask="url(#mask1_2204_143)">
<path d="M27.1609 67.1155H68.8008V81H27.1609V67.1155Z" fill="#43A047"/>
</g>
<mask id="mask2_2204_143" style="mask-type:luminance" maskUnits="userSpaceOnUse" x="15" y="48" width="14" height="33">
<path d="M15 48.0081H28.8974V81H15V48.0081Z" fill="white"/>
</mask>
<g mask="url(#mask2_2204_143)">
<path d="M28.8961 48.0244V81H18.4862C16.5777 81 15.0162 79.4379 15.0162 77.5288V48.0244H28.8961Z" fill="#FBC02D"/>
</g>
<mask id="mask3_2204_143" style="mask-type:luminance" maskUnits="userSpaceOnUse" x="48" y="21" width="33" height="60">
<path d="M48.0364 21.2711H80.9767V81H48.0364V21.2711Z" fill="white"/>
</mask>
<g mask="url(#mask3_2204_143)">
<path d="M79.4191 43.0259L57.6795 21.2794L48.0503 30.9116L67.0659 49.9334V81H77.4758C79.3843 81 80.9459 79.4379 80.9459 77.5288V46.7053C80.9459 45.3341 80.3906 43.9978 79.4191 43.0259Z" fill="#1E88E5"/>
</g>
<path d="M57.6796 21.2794L15.0161 63.9567V46.7053C15.0161 45.3341 15.5712 43.9978 16.5429 43.0259L45.5347 14.0247C46.8879 12.6709 49.0741 12.6709 50.4273 14.0247L57.6796 21.2794Z" fill="#E64A19"/>
</svg>
