<svg width="96" height="96" viewBox="0 0 96 96" fill="none" xmlns="http://www.w3.org/2000/svg">
<rect width="96" height="96" rx="24" fill="white"/>
<path d="M18.6364 73.4937H29.4546V47.2209L14 35.63V68.8574C14 71.4228 16.0786 73.4937 18.6364 73.4937Z" fill="#4285F4"/>
<path d="M66.5454 73.4937H77.3636C79.9294 73.4937 82 71.4151 82 68.8574V35.63L66.5454 47.2209" fill="#34A853"/>
<path d="M66.5454 27.13V47.2209L82 35.63V29.4482C82 23.7145 75.4551 20.4459 70.8728 23.8845" fill="#FBBC04"/>
<path d="M29.4546 47.2209V27.13L48.0001 41.0391L66.5454 27.13V47.2209L48.0001 61.1301" fill="#EA4335"/>
<path d="M14 29.4482V35.63L29.4546 47.2209V27.13L25.1273 23.8845C20.5373 20.4459 14 23.7145 14 29.4482Z" fill="#C5221F"/>
</svg>
