<svg width="366" height="366" viewBox="0 0 366 366" fill="none" xmlns="http://www.w3.org/2000/svg">
<g clip-path="url(#clip0_705_33)">
<path d="M0 130.133C0 84.5824 0 61.8069 8.8648 44.4088C16.6625 29.1049 29.1049 16.6625 44.4088 8.8648C61.8069 0 84.5824 0 130.133 0H235.867C281.418 0 304.193 0 321.591 8.8648C336.895 16.6625 349.338 29.1049 357.135 44.4088C366 61.8069 366 84.5824 366 130.133V235.867C366 281.418 366 304.193 357.135 321.591C349.338 336.895 336.895 349.338 321.591 357.135C304.193 366 281.418 366 235.867 366H130.133C84.5824 366 61.8069 366 44.4088 357.135C29.1049 349.338 16.6625 336.895 8.8648 321.591C0 304.193 0 281.418 0 235.867V130.133Z" fill="white"/>
<g clip-path="url(#clip1_705_33)">
<path d="M263.032 96.3023C249.388 93.9524 235.332 95.8644 221.691 97.2099C208.099 98.5507 193.908 100.192 180.442 97.0041C164.586 93.2511 154.555 82.8576 147.158 68.7754C145.119 74.2932 143.08 79.8105 141.041 85.3289C127.7 121.426 114.359 157.524 101.019 193.622L65 291.084L78.9101 296.225L111.325 208.515C117.341 214.933 124.768 219.594 134.303 221.85C147.768 225.036 161.961 223.398 175.551 222.057C189.192 220.708 203.25 218.798 216.894 221.148C234.426 224.168 245.754 234.669 253.86 250.106C269.242 208.492 284.62 166.876 300 125.26C291.892 109.822 280.567 99.323 263.032 96.3023ZM264.742 170.396C257.883 164.607 250.519 160.736 241.641 159.029C238.679 167.041 235.718 175.053 232.757 183.065C241.636 184.773 248.998 188.644 255.859 194.432C253.144 201.78 250.428 209.128 247.713 216.473C240.854 210.685 233.489 206.811 224.611 205.107C227.326 197.759 230.042 190.412 232.757 183.065C223.717 181.607 214.89 181.615 205.768 182.173C203.053 189.521 200.337 196.869 197.622 204.216C188.184 204.978 178.778 206.061 169.34 206.822C172.055 199.473 174.771 192.126 177.486 184.78C168.364 185.339 159.536 185.348 150.496 183.889C147.781 191.237 145.065 198.584 142.35 205.931C133.473 204.225 126.106 200.352 119.248 194.563C121.963 187.216 124.679 179.868 127.394 172.522C134.254 178.311 141.617 182.183 150.496 183.889C153.457 175.878 156.419 167.865 159.379 159.853C150.501 158.15 143.137 154.273 136.277 148.486C139.239 140.473 142.2 132.461 145.161 124.449C152.021 130.24 159.384 134.107 168.263 135.817C170.978 128.469 173.693 121.122 176.409 113.776C185.449 115.234 194.278 115.225 203.398 114.666C200.683 122.013 197.967 129.36 195.252 136.707C204.69 135.945 214.096 134.863 223.534 134.101C226.249 126.754 228.965 119.407 231.68 112.059C240.803 111.5 249.628 111.492 258.669 112.95C255.954 120.298 253.238 127.644 250.523 134.992C259.402 136.7 266.764 140.57 273.625 146.359C270.665 154.371 267.705 162.384 264.742 170.396Z" fill="black"/>
<path d="M186.369 160.744C183.408 168.756 180.447 176.768 177.485 184.78C186.923 184.017 196.33 182.935 205.768 182.173C208.729 174.162 211.69 166.15 214.651 158.138C205.212 158.9 195.807 159.982 186.369 160.744Z" fill="black"/>
<path d="M186.369 160.744C189.33 152.732 192.292 144.719 195.253 136.707C186.128 137.265 177.304 137.274 168.262 135.817C165.301 143.829 162.34 151.841 159.379 159.853C168.42 161.313 177.246 161.304 186.369 160.744Z" fill="black"/>
<path d="M223.534 134.102C220.573 142.114 217.612 150.125 214.651 158.138C223.773 157.581 232.599 157.571 241.64 159.029C244.601 151.017 247.562 143.005 250.523 134.993C241.483 133.535 232.657 133.542 223.534 134.102Z" fill="black"/>
</g>
</g>
<defs>
<clipPath id="clip0_705_33">
<rect width="366" height="366" fill="white"/>
</clipPath>
<clipPath id="clip1_705_33">
<rect width="235" height="235" fill="white" transform="translate(65 65)"/>
</clipPath>
</defs>
</svg>
