<svg width="366" height="366" viewBox="0 0 366 366" fill="none" xmlns="http://www.w3.org/2000/svg">
<g clip-path="url(#clip0_714_80)">
<path d="M0 130.133C0 84.5824 0 61.8069 8.8648 44.4088C16.6625 29.1049 29.1049 16.6625 44.4088 8.8648C61.8069 0 84.5824 0 130.133 0H235.867C281.418 0 304.193 0 321.591 8.8648C336.895 16.6625 349.337 29.1049 357.135 44.4088C366 61.8069 366 84.5824 366 130.133V235.867C366 281.418 366 304.193 357.135 321.591C349.337 336.895 336.895 349.337 321.591 357.135C304.193 366 281.418 366 235.867 366H130.133C84.5824 366 61.8069 366 44.4088 357.135C29.1049 349.337 16.6625 336.895 8.8648 321.591C0 304.193 0 281.418 0 235.867V130.133Z" fill="white"/>
<path d="M272.081 135.7C272.228 137.754 272.228 139.797 272.228 141.84C272.228 204.353 226.239 276.387 142.192 276.387C116.298 276.387 92.2429 268.627 72 255.15C75.6764 255.584 79.2167 255.737 83.0406 255.737C104.407 255.737 124.071 248.27 139.787 235.533C119.691 235.099 102.852 221.481 97.0427 202.744C99.8681 203.179 102.705 203.472 105.678 203.472C109.774 203.472 113.893 202.885 117.717 201.864C96.759 197.473 81.0662 178.444 81.0662 155.458V154.871C87.1595 158.381 94.2286 160.576 101.718 160.869C89.4062 152.394 81.3385 137.895 81.3385 121.495C81.3385 112.714 83.5966 104.661 87.5567 97.6403C110.058 126.32 143.883 145.068 181.804 147.122C181.101 143.601 180.67 139.95 180.67 136.287C180.67 110.225 201.049 89 226.375 89C239.538 89 251.418 94.7054 259.769 103.933C270.095 101.878 279.989 97.922 288.772 92.5101C285.379 103.487 278.151 112.714 268.676 118.572C277.879 117.539 286.798 114.909 294.99 111.246C288.772 120.615 280.999 128.961 272.081 135.7Z" fill="#00ACEE"/>
</g>
<defs>
<clipPath id="clip0_714_80">
<rect width="366" height="366" fill="white"/>
</clipPath>
</defs>
</svg>
