<svg width="366" height="366" viewBox="0 0 366 366" fill="none" xmlns="http://www.w3.org/2000/svg">
<g clip-path="url(#clip0_714_80)">
<path d="M0 130.133C0 84.5824 0 61.8069 8.8648 44.4088C16.6625 29.1049 29.1049 16.6625 44.4088 8.8648C61.8069 0 84.5824 0 130.133 0H235.867C281.418 0 304.193 0 321.591 8.8648C336.895 16.6625 349.337 29.1049 357.135 44.4088C366 61.8069 366 84.5824 366 130.133V235.867C366 281.418 366 304.193 357.135 321.591C349.337 336.895 336.895 349.337 321.591 357.135C304.193 366 281.418 366 235.867 366H130.133C84.5824 366 61.8069 366 44.4088 357.135C29.1049 349.337 16.6625 336.895 8.8648 321.591C0 304.193 0 281.418 0 235.867V130.133Z" fill="white"/>
<path d="M88.4516 132.843C88.2941 135.036 88.2941 137.216 88.2941 139.396C88.2941 206.117 137.379 283 227.083 283C254.72 283 280.394 274.718 302 260.334C298.076 260.797 294.298 260.96 290.216 260.96C267.412 260.96 246.424 252.991 229.651 239.396C251.099 238.933 269.071 224.398 275.272 204.401C272.256 204.864 269.228 205.178 266.055 205.178C261.683 205.178 257.287 204.551 253.206 203.461C275.574 198.775 292.324 178.464 292.324 153.931V153.304C285.82 157.051 278.275 159.394 270.282 159.707C283.422 150.661 292.033 135.186 292.033 117.682C292.033 108.31 289.623 99.7147 285.396 92.2219C261.381 122.832 225.279 142.842 184.805 145.035C185.555 141.276 186.016 137.379 186.016 133.47C186.016 105.654 164.265 83 137.234 83C123.185 83 110.505 89.0895 101.592 98.9378C90.5709 96.7451 80.0104 92.5226 70.6367 86.7464C74.2578 98.4617 81.9723 108.31 92.0848 114.562C82.263 113.46 72.7439 110.653 64 106.744C70.6367 116.743 78.9325 125.651 88.4516 132.843Z" fill="#00ACEE"/>
</g>
<defs>
<clipPath id="clip0_714_80">
<rect width="366" height="366" fill="white"/>
</clipPath>
</defs>
</svg>
